<svg width="24" height="24" viewBox="0 0 24 24" fill="none" xmlns="http://www.w3.org/2000/svg">
<path fill-rule="evenodd" clip-rule="evenodd" d="M11.9998 4C11.4694 4 10.9606 4.21071 10.5856 4.58579C10.2105 4.96086 9.99979 5.46957 9.99979 6V7H13.9998V6C13.9998 5.46957 13.7891 4.96086 13.414 4.58579C13.0389 4.21071 12.5302 4 11.9998 4ZM15.9998 7V6C15.9998 4.93913 15.5784 3.92172 14.8282 3.17157C14.0781 2.42143 13.0607 2 11.9998 2C10.9389 2 9.92151 2.42143 9.17136 3.17157C8.42122 3.92172 7.99979 4.93913 7.99979 6V7H6.33091M7.99979 9H6.33079C6.1866 8.99998 6.044 9.03115 5.91299 9.09135C5.78198 9.15156 5.66553 9.23938 5.57164 9.3488C5.47775 9.45822 5.40863 9.58666 5.36902 9.72529C5.32942 9.86389 5.32026 10.0094 5.34215 10.1519L6.59714 18.3038C6.66976 18.776 6.90902 19.2068 7.27159 19.5179C7.63414 19.8289 8.09607 20 8.57379 20H15.4258C15.9036 20.0001 16.366 19.8292 16.7287 19.5181C17.0914 19.207 17.3308 18.7763 17.4034 18.304L18.6584 10.152C18.6803 10.0095 18.6711 9.86388 18.6316 9.72529C18.5919 9.58665 18.5228 9.45822 18.4289 9.3488C18.335 9.23938 18.2186 9.15156 18.0876 9.09135C17.9566 9.03115 17.8141 8.99998 17.6699 9H15.9998V11C15.9998 11.5523 15.5521 12 14.9998 12C14.4475 12 13.9998 11.5523 13.9998 11V9H9.99979V11C9.99979 11.5523 9.55207 12 8.99979 12C8.4475 12 7.99979 11.5523 7.99979 11V9ZM15.9998 7H17.6697C18.1022 6.99997 18.5297 7.09345 18.9227 7.27405C19.3157 7.45467 19.6651 7.71814 19.9468 8.0464C20.2284 8.37467 20.4358 8.75997 20.5546 9.17588C20.6734 9.59179 20.7009 10.0285 20.6352 10.456L19.3802 18.608C19.2349 19.5525 18.7562 20.414 18.0308 21.0362C17.3055 21.6583 16.3814 22.0002 15.4258 22H8.57379C7.61832 22 6.69438 21.6579 5.96925 21.0357C5.24415 20.4136 4.76569 19.5525 4.62043 18.6082L3.36543 10.4562C3.29968 10.0286 3.32714 9.59179 3.44597 9.17588C3.56479 8.75997 3.77215 8.37467 4.05383 8.0464C4.3355 7.71814 4.68483 7.45467 5.07787 7.27405C5.47087 7.09345 5.8984 6.99997 6.33091 7" fill="black"/>
</svg>
