<svg width="24" height="24" viewBox="0 0 24 24" fill="none" xmlns="http://www.w3.org/2000/svg">
<path d="M6.29279 6.29279C6.65328 5.93231 7.22081 5.90476 7.6131 6.20978L7.70685 6.29279L12.7069 11.2928C13.0673 11.6533 13.0949 12.2208 12.7899 12.6131L12.7069 12.7069L7.70685 17.7069C7.31633 18.0974 6.68332 18.0974 6.29279 17.7069C5.93231 17.3464 5.90476 16.7788 6.20978 16.3865L6.29279 16.2928L10.5848 11.9998L6.29279 7.70685C5.93231 7.34637 5.90476 6.77883 6.20978 6.38654L6.29279 6.29279ZM12.2928 6.29279C12.6533 5.93231 13.2208 5.90476 13.6131 6.20978L13.7069 6.29279L18.7069 11.2928C19.0673 11.6533 19.0949 12.2208 18.7899 12.6131L18.7069 12.7069L13.7069 17.7069C13.3163 18.0974 12.6833 18.0974 12.2928 17.7069C11.9323 17.3464 11.9048 16.7788 12.2098 16.3865L12.2928 16.2928L16.5848 11.9998L12.2928 7.70685C11.9323 7.34637 11.9048 6.77883 12.2098 6.38654L12.2928 6.29279Z" fill="black"/>
</svg>
