<svg width="24" height="24" viewBox="0 0 24 24" fill="none" xmlns="http://www.w3.org/2000/svg">
<path d="M10 19H9C6.23 19 4 16.7618 4 14.0039C4 11.2361 6.23 9.00785 9 9.00785H17.59L15.29 6.71965V6.71865C14.89 6.31896 14.89 5.68946 15.29 5.29976C15.68 4.90008 16.31 4.90008 16.71 5.29976L20.71 9.29662V9.29563C20.8 9.38555 20.87 9.49547 20.92 9.62537C20.97 9.74527 20.99 9.86518 21 10.0051C20.99 10.135 20.97 10.2549 20.92 10.3848C20.87 10.5047 20.8 10.6146 20.71 10.7145L16.71 14.7114C16.31 15.1011 15.68 15.1011 15.29 14.7114C14.89 14.3117 14.89 13.6822 15.289 13.2925L17.589 11.0043H8.99C7.33 11.0043 5.99 12.3432 5.99 14.0019C5.99 15.6506 7.33 16.9996 8.99 16.9996H9.99C10.54 16.9996 10.99 17.4392 10.99 17.9988C10.99 18.5484 10.54 18.998 9.99 18.998L10 19Z" fill="#989898"/>
</svg>
