<svg width="24" height="24" viewBox="0 0 24 24" fill="none" xmlns="http://www.w3.org/2000/svg">
<path fill-rule="evenodd" clip-rule="evenodd" d="M9.70711 13.2929C10.0676 13.6534 10.0953 14.2206 9.7903 14.6129L9.70711 14.7071C9.34662 15.0676 8.77939 15.0953 8.3871 14.7903L8.29289 14.7071L4.29289 10.7071C4.2575 10.6717 4.22531 10.6343 4.19633 10.5953L4.12467 10.4841L4.07123 10.3713L4.03585 10.266L4.01102 10.1485L4.00398 10.0898L4 10L4.00279 9.92476L4.02024 9.79927L4.04974 9.68786L4.09367 9.57678L4.146 9.47929L4.2097 9.3871L4.29289 9.29289L8.29289 5.29289C8.68342 4.90237 9.31658 4.90237 9.70711 5.29289C10.0676 5.65338 10.0953 6.22061 9.7903 6.6129L9.70711 6.70711L7.415 9H16C18.7614 9 21 11.2386 21 14C21 16.6888 18.8777 18.8818 16.2169 18.9954L16 19H15C14.4477 19 14 18.5523 14 18C14 17.4872 14.386 17.0645 14.8834 17.0067L15 17H16C17.6569 17 19 15.6569 19 14C19 12.4023 17.7511 11.0963 16.1763 11.0051L16 11H7.415L9.70711 13.2929Z" fill="#989898"/>
</svg>
