<svg width="24" height="24" viewBox="0 0 24 24" fill="none" xmlns="http://www.w3.org/2000/svg">
<path d="M13 4C13.5128 4 13.9354 4.38645 13.9932 4.88379L14 5H18C18.3073 5 18.595 5.14095 18.7832 5.37793L18.8574 5.48535L21.8574 10.4854L21.8936 10.5518L21.9365 10.6504L21.9766 10.7822L21.9951 10.8994L22 11V17C22 17.5128 21.6135 17.9354 21.1162 17.9932L21 18H19.8262C19.4141 19.1647 18.3059 20 17 20C15.6941 20 14.5859 19.1647 14.1738 18H9.82617C9.41406 19.1647 8.30585 20 7 20C5.69415 20 4.58594 19.1647 4.17383 18H3C2.48716 18 2.0646 17.6135 2.00684 17.1162L2 17V6C2 4.9457 2.81581 4.08229 3.85059 4.00586L4 4H13ZM7 16C6.44772 16 6 16.4477 6 17C6 17.5523 6.44772 18 7 18C7.55228 18 8 17.5523 8 17C8 16.4477 7.55228 16 7 16ZM17 16C16.4477 16 16 16.4477 16 17C16 17.5523 16.4477 18 17 18C17.5523 18 18 17.5523 18 17C18 16.4477 17.5523 16 17 16ZM14 16H14.1738C14.5859 14.8353 15.6941 14 17 14C18.3059 14 19.4141 14.8353 19.8262 16H20V12H14V16ZM4 16H4.17383C4.58594 14.8353 5.69415 14 7 14C8.30585 14 9.41406 14.8353 9.82617 16H12V6H4V16ZM14 10H19.2344L17.4336 7H14V10Z" fill="black"/>
</svg>
