<svg width="125" height="22" viewBox="0 0 125 22" fill="none" xmlns="http://www.w3.org/2000/svg">
<path fill-rule="evenodd" clip-rule="evenodd" d="M7.68493 17.8683L0 9.69708L5.36387 4L7.68502 6.47808L10.0062 4L15.37 9.69708L7.68493 17.8683ZM7.68334 13.3432L4.26835 9.71036L5.36446 8.52886L7.68521 10.9926L10.006 8.52886L11.1021 9.71036L7.68709 13.3432L7.68708 13.3366L7.68334 13.3432Z" fill="black"/>
<path fill-rule="evenodd" clip-rule="evenodd" d="M124.046 8.75386L124.046 6.41866L113.951 6.41866V7.3941C113.323 6.73743 112.282 6.41866 110.838 6.41866L104.241 6.41866L104.241 15.4498L107.69 15.4498V12.6373L109.584 12.6373L111.289 15.4498L114.926 15.4498L112.894 12.1986C113.973 11.7342 114.662 10.8568 114.662 9.46346C114.662 9.21075 114.643 8.97428 114.604 8.75386L117.274 8.75386V15.4498L120.722 15.4498V8.75386L124.046 8.75386ZM107.69 10.3279L110.098 10.3279C110.838 10.3279 111.214 10.0827 111.214 9.50216C111.214 8.94739 110.838 8.75386 110.098 8.75386L107.69 8.75386V10.3279Z" fill="black"/>
<path d="M103.699 6.41866L100.251 6.41866L100.251 15.4498L103.699 15.4498L103.699 6.41866Z" fill="black"/>
<path fill-rule="evenodd" clip-rule="evenodd" d="M96.2175 6.41866L99.6661 6.41866L99.6661 15.4498L96.2175 15.4498V12.1083L92.2924 12.1083V15.4498L88.8438 15.4498V13.7762C88.2219 15.1911 86.3508 15.6257 83.5777 15.6257C80.1527 15.6257 78.624 14.7567 78.2762 13.2527C77.3714 15.0909 75.267 15.4498 73.0842 15.4498L65.1154 15.4498L64.6263 14.1726L60.7137 14.1726L60.2246 15.4498L44.8834 15.4498L43.1779 12.6373L41.2844 12.6373L41.2844 15.4498L37.8358 15.4498L37.8358 10.9557C37.2942 12.283 35.8977 12.7663 34.0315 12.7663L31.235 12.7663L31.235 15.4498L27.7864 15.4498L27.7864 14.0109C27.0658 15.2397 25.2535 15.6257 22.64 15.6257C18.6858 15.6257 17.2593 14.4673 17.2593 12.5109L20.8506 12.5109C20.8506 13.206 21.4262 13.4505 22.8402 13.4505C23.9789 13.4505 24.467 13.2832 24.467 12.8456C24.467 12.4119 24.166 12.3732 22.0234 12.0975C21.8133 12.0705 21.5855 12.0411 21.3386 12.009C18.6107 11.6486 17.497 11.0436 17.497 9.17734C17.497 7.1952 19.1238 6.24275 22.5149 6.24275C26.2439 6.24275 27.5578 7.47837 27.5578 9.17734L24.0791 9.17734C24.0791 8.6625 23.6411 8.40508 22.4899 8.40508C21.2886 8.40508 20.9007 8.64963 20.9007 9.02289C20.9007 9.48556 21.4717 9.54511 22.8787 9.69184C22.9591 9.70022 23.0422 9.70888 23.128 9.71793C23.1949 9.72486 23.2612 9.73171 23.3271 9.73851C25.4795 9.96086 27.1074 10.129 27.7864 11.1873L27.7864 6.41866L34.2697 6.41866C36.2019 6.41866 37.3634 7.01334 37.8358 8.15025V6.41866L44.432 6.41866C46.3395 6.41866 47.543 6.97467 48.0212 8.13077V6.41866L57.163 6.41866V8.75386L51.4697 8.75386V9.7731L56.8119 9.7731L56.8119 11.9793L51.4697 11.9793V13.1275L57.2759 13.1275V14.0601L60.7137 6.41866L64.6263 6.41866L68.0431 14.0133L68.0431 6.41866L73.0842 6.41866C75.4106 6.41866 77.6481 6.8347 78.439 9.00327C78.533 7.13941 80.1623 6.24275 83.4525 6.24275C87.1815 6.24275 88.4954 7.47837 88.4954 9.17734L85.0167 9.17734C85.0167 8.6625 84.5787 8.40508 83.4275 8.40508C82.2262 8.40508 81.8383 8.64963 81.8383 9.02289C81.8383 9.48556 82.4094 9.54511 83.8164 9.69184L83.8175 9.69195C83.8975 9.7003 83.9802 9.70893 84.0657 9.71793C84.1322 9.72483 84.1983 9.73165 84.2639 9.73843L84.2647 9.73851C86.5564 9.97524 88.2536 10.1506 88.8438 11.4042L88.8438 6.41866L92.2924 6.41866L92.2924 9.52797L96.2175 9.52797L96.2175 6.41866ZM48.0212 14.6513L48.0212 10.7296C47.7325 11.4149 47.1936 11.895 46.4886 12.1986L48.0212 14.6513ZM81.7883 12.5109L78.5521 12.5109C78.6741 12.0565 78.7399 11.5342 78.7399 10.9343C78.7399 10.7876 78.736 10.6456 78.7282 10.5081C79.2169 11.3741 80.3399 11.7531 82.2763 12.009C82.5232 12.0411 82.751 12.0705 82.961 12.0975C85.1036 12.3732 85.4046 12.4119 85.4046 12.8456C85.4046 13.2832 84.9166 13.4505 83.7779 13.4505C82.3639 13.4505 81.7883 13.206 81.7883 12.5109ZM72.1449 13.1276C73.8718 13.1282 75.2537 13.1287 75.2537 10.9343C75.2537 8.75181 73.8869 8.7527 72.1732 8.75381L71.4916 8.75386V13.1275L72.1449 13.1276ZM61.6166 11.8503L62.67 9.08931L63.7234 11.8503L61.6166 11.8503ZM41.2844 8.75386L43.6921 8.75386C44.432 8.75386 44.8082 8.94739 44.8082 9.50216C44.8082 10.0827 44.432 10.3279 43.6921 10.3279L41.2844 10.3279V8.75386ZM33.5299 10.4569C34.2823 10.4569 34.6459 10.186 34.6459 9.56667C34.6459 8.999 34.2823 8.75386 33.5299 8.75386L31.235 8.75386L31.235 10.4569L33.5299 10.4569Z" fill="black"/>
</svg>
